<svg width="345" height="280" viewBox="0 0 345 280" fill="none" xmlns="http://www.w3.org/2000/svg">
<g clip-path="url(#clip0_100_4164)">
<path fill-rule="evenodd" clip-rule="evenodd" d="M299.057 205.504C311.173 186.796 318.208 164.49 318.208 140.542C318.208 74.4516 264.632 20.875 198.542 20.875C132.452 20.875 78.875 74.4516 78.875 140.542C78.875 206.632 132.452 260.208 198.542 260.208C222.49 260.208 244.796 253.173 263.504 241.057L348.125 325.678L383.678 290.125L299.057 205.504ZM267.258 140.542C267.258 178.493 236.493 209.258 198.542 209.258C160.591 209.258 129.826 178.493 129.826 140.542C129.826 102.591 160.591 71.8255 198.542 71.8255C236.493 71.8255 267.258 102.591 267.258 140.542Z" fill="white" fill-opacity="0.1"/>
</g>
<defs>
<clipPath id="clip0_100_4164">
<rect width="345" height="280" rx="40" fill="white"/>
</clipPath>
</defs>
</svg>
