<svg width="1440" height="653" viewBox="0 0 1440 653" fill="none" xmlns="http://www.w3.org/2000/svg">
<path d="M485.661 257.661C485.646 195.345 467.152 134.423 432.518 82.601C397.885 30.7785 348.667 -9.61755 291.088 -33.479C233.51 -57.3403 170.157 -63.5953 109.041 -51.4529C47.925 -39.3105 -8.20892 -9.31598 -52.2624 34.7375C-96.316 78.791 -126.31 134.925 -138.453 196.041C-150.595 257.157 -144.34 320.51 -120.479 378.088C-96.6176 435.667 -56.2215 484.885 -4.39902 519.518C47.4234 554.152 108.345 572.646 170.661 572.661L170.617 393.209C147.486 393.404 124.627 387.68 104.335 376.654L65.332 415.658C55.0901 408.82 45.3654 400.881 36.325 391.84C25.843 381.358 16.8415 369.956 9.32065 357.895L48.2328 318.983C43.8238 310.352 40.4254 301.445 37.9999 292.407L-16.1151 292.394C-21.1159 265.505 -20.2842 237.747 -13.6193 211.154L41.4641 211.167C43.5596 205.348 46.0528 199.664 48.9317 194.162L10.315 155.545C17.615 144.099 26.2632 133.264 36.2596 123.268C46.2496 113.278 57.0764 104.635 68.5145 97.3377L107.463 136.287C112.925 133.492 118.498 131.103 124.144 129.109L124.131 73.3928C150.724 66.7258 178.481 65.8919 205.371 70.8907L205.384 126.326C214.204 128.758 222.782 132.076 230.972 136.241L270.885 96.3281C282.947 103.849 294.349 112.851 304.832 123.333C313.873 132.374 321.812 142.1 328.65 152.342L288.63 192.363C299.921 213.071 305.267 235.493 305.205 257.617L485.661 257.661Z" fill="white" fill-opacity="0.1"/>
<path d="M110.291 319.811C126.622 335.013 148.165 343.139 170.072 342.89L170.059 288.971C161.433 289.316 152.692 286.194 146.104 279.606C133.587 267.089 146.093 234.29 146.093 234.29C146.093 234.29 178.892 221.784 191.409 234.301C197.664 240.556 200.795 248.753 200.8 256.95L255.151 256.963C255.2 242.247 251.475 227.32 243.583 213.655C219.78 172.438 167.08 158.305 125.875 182.089C84.6692 205.872 70.562 258.565 94.3653 299.782C97.6994 305.555 101.601 310.797 105.958 315.478L110.291 319.811Z" fill="white" fill-opacity="0.1"/>
<path d="M1596.66 580.661C1596.65 518.345 1578.15 457.423 1543.52 405.601C1508.88 353.779 1459.67 313.382 1402.09 289.521C1344.51 265.66 1281.16 259.405 1220.04 271.547C1158.93 283.69 1102.79 313.684 1058.74 357.738C1014.68 401.791 984.69 457.925 972.547 519.041C960.405 580.157 966.66 643.51 990.521 701.088C1014.38 758.667 1054.78 807.885 1106.6 842.518C1158.42 877.152 1219.34 895.646 1281.66 895.661L1281.62 716.209C1258.49 716.404 1235.63 710.68 1215.34 699.654L1176.33 738.658C1166.09 731.82 1156.37 723.881 1147.32 714.84C1136.84 704.358 1127.84 692.956 1120.32 680.895L1159.23 641.983C1154.82 633.352 1151.43 624.445 1149 615.407L1094.88 615.394C1089.88 588.505 1090.72 560.747 1097.38 534.154L1152.46 534.167C1154.56 528.348 1157.05 522.664 1159.93 517.162L1121.32 478.545C1128.61 467.099 1137.26 456.265 1147.26 446.268C1157.25 436.278 1168.08 427.635 1179.51 420.338L1218.46 459.287C1223.93 456.492 1229.5 454.103 1235.14 452.109L1235.13 396.393C1261.72 389.726 1289.48 388.892 1316.37 393.891L1316.38 449.326C1325.2 451.758 1333.78 455.076 1341.97 459.241L1381.89 419.328C1393.95 426.849 1405.35 435.851 1415.83 446.333C1424.87 455.374 1432.81 465.1 1439.65 475.342L1399.63 515.363C1410.92 536.071 1416.27 558.493 1416.2 580.617L1596.66 580.661Z" fill="white" fill-opacity="0.1"/>
<path d="M1221.29 642.811C1237.62 658.013 1259.16 666.139 1281.07 665.89L1281.06 611.971C1272.43 612.316 1263.69 609.194 1257.1 602.606C1244.59 590.089 1244.58 569.801 1257.09 557.29C1269.6 544.779 1289.89 544.784 1302.41 557.301C1308.66 563.557 1311.79 571.753 1311.8 579.95L1366.15 579.964C1366.2 565.247 1362.47 550.32 1354.58 536.655C1330.78 495.438 1278.08 481.305 1236.87 505.089C1195.67 528.872 1181.56 581.565 1205.37 622.782C1208.7 628.555 1212.6 633.797 1216.96 638.478L1221.29 642.811Z" fill="white" fill-opacity="0.1"/>
</svg>
