<svg width="31" height="30" viewBox="0 0 31 30" fill="none" xmlns="http://www.w3.org/2000/svg">
<path d="M15.5031 1.19922C23.1249 1.19922 29.3031 7.37742 29.3031 14.9992C29.3031 22.621 23.1249 28.7992 15.5031 28.7992C7.88133 28.7992 1.70312 22.621 1.70312 14.9992C1.70312 7.37742 7.88133 1.19922 15.5031 1.19922ZM20.2635 20.6242C20.5173 19.8454 21.7065 12.0838 21.8535 10.5544C21.8979 10.0912 21.7515 9.78342 21.4647 9.64602C21.1179 9.47922 20.6043 9.56262 20.0085 9.77742C19.1913 10.072 8.74413 14.5078 8.14053 14.7646C7.56813 15.0076 7.02693 15.2728 7.02693 15.6568C7.02693 15.9268 7.18713 16.0786 7.62873 16.2364C8.08833 16.4002 9.24573 16.7512 9.92913 16.9396C10.5873 17.1214 11.3367 16.9636 11.7567 16.7026C12.2019 16.426 17.3397 12.988 17.7087 12.6868C18.0771 12.3856 18.3711 12.7714 18.0699 13.0732C17.7687 13.3744 14.2419 16.7974 13.7769 17.2714C13.2123 17.8468 13.6131 18.4432 13.9917 18.682C14.4243 18.9544 17.5353 21.0412 18.0039 21.376C18.4725 21.7108 18.9477 21.8626 19.3827 21.8626C19.8177 21.8626 20.0469 21.2896 20.2635 20.6242Z" fill="#2F6AF6"/>
</svg>
