<svg width="230" height="72" viewBox="0 0 230 72" fill="none" xmlns="http://www.w3.org/2000/svg">
<path d="M42.4955 71.2807C49.3818 69.911 55.7072 66.5299 60.6719 61.5652L47.507 48.4001C45.4598 50.4588 42.8581 52.0206 39.8518 52.8262L39.7812 52.8449V57.4464C38.4193 57.7183 37.0108 57.8609 35.5689 57.8609C33.9014 57.8609 32.2785 57.6702 30.7207 57.3093V52.7399C29.2828 52.323 27.9091 51.7191 26.6351 50.9487L23.4698 54.1141C20.9299 52.3696 18.7854 50.0912 17.1983 47.4407L20.3605 44.2784C19.8397 43.2809 19.411 42.2173 19.0883 41.0956H14.6746C14.3454 39.6041 14.1719 38.0541 14.1719 36.4637C14.1719 34.8685 14.3464 33.314 14.6775 31.8184H19.0437C19.3565 30.6986 19.7825 29.6166 20.312 28.5891L17.2025 25.4795C18.7906 22.8297 20.9359 20.5521 23.4765 18.8086L26.539 21.8712C27.8152 21.0886 29.2156 20.4633 30.7207 20.0291V15.618C32.2785 15.2571 33.9014 15.0664 35.5689 15.0664C37.0108 15.0664 38.4193 15.209 39.7813 15.4809V19.9185C42.7375 20.6998 45.4402 22.2674 47.5864 24.4462L60.6719 11.3606C55.7072 6.39585 49.3818 3.0148 42.4955 1.64503C35.6093 0.275254 28.4715 0.978273 21.9848 3.66518C15.4981 6.35209 9.95381 10.9022 6.05307 16.7402C2.15233 22.5781 0.0703125 29.4417 0.0703125 36.4629C0.0703125 43.4841 2.15233 50.3477 6.05307 56.1856C9.95381 62.0236 15.4981 66.5737 21.9848 69.2606C28.4715 71.9475 35.6093 72.6505 42.4955 71.2807Z" fill="#2F6AF6"/>
<path d="M43.6391 28.3936C40.843 25.5315 36.6247 24.2219 32.4846 25.3313C26.3809 26.9668 22.7587 33.2407 24.3941 39.3445C26.0296 45.4484 32.3035 49.0706 38.4073 47.4351C40.4315 46.8927 42.1828 45.8402 43.5599 44.4529L38.4571 39.3501C37.6871 40.12 36.6234 40.5962 35.4484 40.5962C33.0984 40.5962 31.1934 38.6911 31.1934 36.3411C31.1934 33.991 33.0984 32.0859 35.4484 32.0859C36.6853 32.0859 37.799 32.6137 38.5764 33.4563L43.6391 28.3936Z" fill="#2F6AF6"/>
<path d="M32.4827 25.3371C36.6227 24.2278 40.841 25.5373 43.6371 28.3995L38.5745 33.4622C37.797 32.6196 36.6834 32.0918 35.4465 32.0918C33.0965 32.0918 31.1914 33.9969 31.1914 36.3469C31.1914 38.697 33.0965 40.6021 35.4465 40.6021C36.6224 40.6021 37.6869 40.1251 38.4571 39.354L43.5598 44.4568C42.1824 45.8451 40.4305 46.8983 38.4053 47.441C32.3016 49.0765 26.0277 45.4542 24.3922 39.3504C22.7567 33.2466 26.3789 26.9726 32.4827 25.3371Z" fill="#0A0F09"/>
<path d="M87.4766 33.175C86.0766 33.175 84.7766 32.9583 83.5766 32.525C82.3932 32.075 81.3599 31.4417 80.4766 30.625C79.6099 29.8083 78.9349 28.8417 78.4516 27.725C77.9682 26.6083 77.7266 25.375 77.7266 24.025C77.7266 22.675 77.9682 21.4417 78.4516 20.325C78.9349 19.2083 79.6099 18.2417 80.4766 17.425C81.3599 16.6083 82.3932 15.9833 83.5766 15.55C84.7766 15.1 86.0766 14.875 87.4766 14.875C89.1932 14.875 90.7099 15.175 92.0266 15.775C93.3599 16.375 94.4599 17.2417 95.3266 18.375L91.6016 21.7C91.0849 21.05 90.5099 20.55 89.8766 20.2C89.2599 19.8333 88.5599 19.65 87.7766 19.65C87.1599 19.65 86.6016 19.75 86.1016 19.95C85.6016 20.15 85.1682 20.4417 84.8016 20.825C84.4516 21.2083 84.1766 21.675 83.9766 22.225C83.7766 22.7583 83.6766 23.3583 83.6766 24.025C83.6766 24.6917 83.7766 25.3 83.9766 25.85C84.1766 26.3833 84.4516 26.8417 84.8016 27.225C85.1682 27.6083 85.6016 27.9 86.1016 28.1C86.6016 28.3 87.1599 28.4 87.7766 28.4C88.5599 28.4 89.2599 28.225 89.8766 27.875C90.5099 27.5083 91.0849 27 91.6016 26.35L95.3266 29.675C94.4599 30.7917 93.3599 31.6583 92.0266 32.275C90.7099 32.875 89.1932 33.175 87.4766 33.175Z" fill="#0A0F09"/>
<path d="M94.8859 32.775L102.536 15.275H108.336L115.986 32.775H109.886L104.236 18.075H106.536L100.886 32.775H94.8859ZM99.4359 29.725L100.936 25.475H108.986L110.486 29.725H99.4359Z" fill="#0A0F09"/>
<path d="M123.453 33.175C121.986 33.175 120.569 33.0083 119.203 32.675C117.836 32.3417 116.711 31.9083 115.828 31.375L117.728 27.075C118.561 27.5583 119.486 27.95 120.503 28.25C121.536 28.5333 122.536 28.675 123.503 28.675C124.069 28.675 124.511 28.6417 124.828 28.575C125.161 28.4917 125.403 28.3833 125.553 28.25C125.703 28.1 125.778 27.925 125.778 27.725C125.778 27.4083 125.603 27.1583 125.253 26.975C124.903 26.7917 124.436 26.6417 123.853 26.525C123.286 26.3917 122.661 26.2583 121.978 26.125C121.294 25.975 120.603 25.7833 119.903 25.55C119.219 25.3167 118.586 25.0083 118.003 24.625C117.436 24.2417 116.978 23.7417 116.628 23.125C116.278 22.4917 116.103 21.7083 116.103 20.775C116.103 19.6917 116.403 18.7083 117.003 17.825C117.619 16.925 118.528 16.2083 119.728 15.675C120.944 15.1417 122.453 14.875 124.253 14.875C125.436 14.875 126.603 15 127.753 15.25C128.903 15.5 129.936 15.8833 130.853 16.4L129.078 20.675C128.211 20.2417 127.369 19.9167 126.553 19.7C125.753 19.4833 124.969 19.375 124.203 19.375C123.636 19.375 123.186 19.425 122.853 19.525C122.519 19.625 122.278 19.7583 122.128 19.925C121.994 20.0917 121.928 20.275 121.928 20.475C121.928 20.775 122.103 21.0167 122.453 21.2C122.803 21.3667 123.261 21.5083 123.828 21.625C124.411 21.7417 125.044 21.8667 125.728 22C126.428 22.1333 127.119 22.3167 127.803 22.55C128.486 22.7833 129.111 23.0917 129.678 23.475C130.261 23.8583 130.728 24.3583 131.078 24.975C131.428 25.5917 131.603 26.3583 131.603 27.275C131.603 28.3417 131.294 29.325 130.678 30.225C130.078 31.1083 129.178 31.825 127.978 32.375C126.778 32.9083 125.269 33.175 123.453 33.175Z" fill="#0A0F09"/>
<path d="M138.758 21.775H146.558V26.025H138.758V21.775ZM139.158 28.325H147.908V32.775H133.358V15.275H147.583V19.725H139.158V28.325Z" fill="#0A0F09"/>
<path d="M166.725 33.175C165.325 33.175 164.025 32.9583 162.825 32.525C161.641 32.075 160.608 31.4417 159.725 30.625C158.858 29.8083 158.183 28.8417 157.7 27.725C157.216 26.6083 156.975 25.375 156.975 24.025C156.975 22.675 157.216 21.4417 157.7 20.325C158.183 19.2083 158.858 18.2417 159.725 17.425C160.608 16.6083 161.641 15.9833 162.825 15.55C164.025 15.1 165.325 14.875 166.725 14.875C168.441 14.875 169.958 15.175 171.275 15.775C172.608 16.375 173.708 17.2417 174.575 18.375L170.85 21.7C170.333 21.05 169.758 20.55 169.125 20.2C168.508 19.8333 167.808 19.65 167.025 19.65C166.408 19.65 165.85 19.75 165.35 19.95C164.85 20.15 164.416 20.4417 164.05 20.825C163.7 21.2083 163.425 21.675 163.225 22.225C163.025 22.7583 162.925 23.3583 162.925 24.025C162.925 24.6917 163.025 25.3 163.225 25.85C163.425 26.3833 163.7 26.8417 164.05 27.225C164.416 27.6083 164.85 27.9 165.35 28.1C165.85 28.3 166.408 28.4 167.025 28.4C167.808 28.4 168.508 28.225 169.125 27.875C169.758 27.5083 170.333 27 170.85 26.35L174.575 29.675C173.708 30.7917 172.608 31.6583 171.275 32.275C169.958 32.875 168.441 33.175 166.725 33.175Z" fill="#0A0F09"/>
<path d="M176.278 32.775V15.275H182.178V28.2H190.078V32.775H176.278Z" fill="#0A0F09"/>
<path d="M199.961 33.175C197.277 33.175 195.186 32.45 193.686 31C192.186 29.55 191.436 27.5167 191.436 24.9V15.275H197.336V24.725C197.336 26.0583 197.577 27.0083 198.061 27.575C198.544 28.125 199.194 28.4 200.011 28.4C200.844 28.4 201.494 28.125 201.961 27.575C202.444 27.0083 202.686 26.0583 202.686 24.725V15.275H208.486V24.9C208.486 27.5167 207.736 29.55 206.236 31C204.736 32.45 202.644 33.175 199.961 33.175Z" fill="#0A0F09"/>
<path d="M211.19 32.775V15.275H220.54C222.957 15.275 224.74 15.7083 225.89 16.575C227.04 17.425 227.615 18.5167 227.615 19.85C227.615 20.7333 227.365 21.525 226.865 22.225C226.382 22.9083 225.674 23.45 224.74 23.85C223.807 24.25 222.657 24.45 221.29 24.45L221.79 23.1C223.157 23.1 224.332 23.2917 225.315 23.675C226.315 24.0583 227.082 24.6167 227.615 25.35C228.165 26.0667 228.44 26.9333 228.44 27.95C228.44 29.4667 227.807 30.65 226.54 31.5C225.29 32.35 223.457 32.775 221.04 32.775H211.19ZM216.99 28.65H220.54C221.19 28.65 221.674 28.5333 221.99 28.3C222.324 28.0667 222.49 27.725 222.49 27.275C222.49 26.825 222.324 26.4833 221.99 26.25C221.674 26.0167 221.19 25.9 220.54 25.9H216.59V22H219.74C220.407 22 220.89 21.8917 221.19 21.675C221.507 21.4417 221.665 21.1167 221.665 20.7C221.665 20.2667 221.507 19.9417 221.19 19.725C220.89 19.5083 220.407 19.4 219.74 19.4H216.99V28.65Z" fill="#0A0F09"/>
<path d="M78.4258 60.9996V43.4996H83.2758L92.1758 54.1496H89.9258V43.4996H95.6758V60.9996H90.8258L81.9258 50.3496H84.1758V60.9996H78.4258Z" fill="#2F6AF6"/>
<path d="M105.044 61.3996C103.577 61.3996 102.16 61.2329 100.794 60.8996C99.4269 60.5663 98.3019 60.1329 97.4186 59.5996L99.3186 55.2996C100.152 55.7829 101.077 56.1746 102.094 56.4746C103.127 56.7579 104.127 56.8996 105.094 56.8996C105.66 56.8996 106.102 56.8663 106.419 56.7996C106.752 56.7163 106.994 56.6079 107.144 56.4746C107.294 56.3246 107.369 56.1496 107.369 55.9496C107.369 55.6329 107.194 55.3829 106.844 55.1996C106.494 55.0163 106.027 54.8663 105.444 54.7496C104.877 54.6163 104.252 54.4829 103.569 54.3496C102.885 54.1996 102.194 54.0079 101.494 53.7746C100.81 53.5413 100.177 53.2329 99.5936 52.8496C99.0269 52.4663 98.5686 51.9663 98.2186 51.3496C97.8686 50.7163 97.6936 49.9329 97.6936 48.9996C97.6936 47.9163 97.9936 46.9329 98.5936 46.0496C99.2102 45.1496 100.119 44.4329 101.319 43.8996C102.535 43.3663 104.044 43.0996 105.844 43.0996C107.027 43.0996 108.194 43.2246 109.344 43.4746C110.494 43.7246 111.527 44.1079 112.444 44.6246L110.669 48.8996C109.802 48.4663 108.96 48.1413 108.144 47.9246C107.344 47.7079 106.56 47.5996 105.794 47.5996C105.227 47.5996 104.777 47.6496 104.444 47.7496C104.11 47.8496 103.869 47.9829 103.719 48.1496C103.585 48.3163 103.519 48.4996 103.519 48.6996C103.519 48.9996 103.694 49.2413 104.044 49.4246C104.394 49.5913 104.852 49.7329 105.419 49.8496C106.002 49.9663 106.635 50.0913 107.319 50.2246C108.019 50.3579 108.71 50.5413 109.394 50.7746C110.077 51.0079 110.702 51.3163 111.269 51.6996C111.852 52.0829 112.319 52.5829 112.669 53.1996C113.019 53.8163 113.194 54.5829 113.194 55.4996C113.194 56.5663 112.885 57.5496 112.269 58.4496C111.669 59.3329 110.769 60.0496 109.569 60.5996C108.369 61.1329 106.86 61.3996 105.044 61.3996Z" fill="#2F6AF6"/>
<path d="M123.324 61.3996C120.641 61.3996 118.549 60.6746 117.049 59.2246C115.549 57.7746 114.799 55.7413 114.799 53.1246V43.4996H120.699V52.9496C120.699 54.2829 120.941 55.2329 121.424 55.7996C121.908 56.3496 122.558 56.6246 123.374 56.6246C124.208 56.6246 124.858 56.3496 125.324 55.7996C125.808 55.2329 126.049 54.2829 126.049 52.9496V43.4996H131.849V53.1246C131.849 55.7413 131.099 57.7746 129.599 59.2246C128.099 60.6746 126.008 61.3996 123.324 61.3996Z" fill="#2F6AF6"/>
</svg>
